# xmcd
#
# Track frame offsets: 
#        150
#        36985
#        56756
#        91488
#        130015
#        143467
#        166714
#        196643
#        243042
#        268194
#
# Disc length: 3938 seconds
#
# Revision: 2
# Processed by: cddbd v1.5.2PL0 Copyright (c) Steve Scherf et al.
# Submitted via: ExactAudioCopy v1.0b4
#
DISCID=7c0f600a
DTITLE=Ilmiliekki Quartet - March of the Alpha Males
DYEAR=2004
DGENRE=Jazz
TTITLE0=ICO
TTITLE1=Anchor Song
TTITLE2=Old May Become New
TTITLE3=Answer Kalho, Answer
TTITLE4=Monastery
TTITLE5=March of the Alpha Males
TTITLE6=Melankolinaa
TTITLE7=Blue Jyväskylä
TTITLE8=The Tourist
TTITLE9=What Reason Could I Give
EXTD=YEAR: 2003
EXTT0=
EXTT1=
EXTT2=
EXTT3=
EXTT4=
EXTT5=
EXTT6=
EXTT7=
EXTT8=
EXTT9=
PLAYORDER=
